<svg xmlns="http://www.w3.org/2000/svg" width="16" height="16" fill="none" viewBox="0 0 16 16" class="size-4 text-gray-new-20 dark:text-white dark:[&amp;_stop:not([stop-opacity])]:gradient-stop-opacity-40 dark:[&amp;_stop[stop-opacity=&quot;0.6&quot;]]:gradient-stop-opacity-100"><g clip-path="url(#api-gradient_inline_svg__a)"><path fill="url(#api-gradient_inline_svg__b)" fill-rule="evenodd" d="M7.008 2.034a.991.991 0 1 1 1.981.04.5.5 0 0 0-.016.146.991.991 0 0 1-1.965-.186m2.823.78a1.991 1.991 0 1 1 .147-.999 7.206 7.206 0 0 1 5.23 6.929.5.5 0 1 1-1 0 6.21 6.21 0 0 0-4.377-5.93m-7.973 8.35a.99.99 0 1 1-.134.059l.016-.005a.5.5 0 0 0 .118-.054m-.853-.666a1.991 1.991 0 1 0 .939-.375 6.2 6.2 0 0 1 2.95-6.746.5.5 0 0 0-.5-.866 7.2 7.2 0 0 0-3.39 7.987m12.806.61a.991.991 0 0 0-.64 1.746q.048.027.09.067l.01.008a.991.991 0 1 0 .541-1.821m-1.99.99c0 .448.147.861.397 1.194a6.185 6.185 0 0 1-7.318.834.5.5 0 0 0-.5.866 7.185 7.185 0 0 0 8.608-1.071 1.991 1.991 0 1 0-1.187-1.822" clip-rule="evenodd"></path></g><defs><linearGradient id="api-gradient_inline_svg__b" x1="8.032" x2="8.032" y1="-2.128" y2="19.2" gradientUnits="userSpaceOnUse"><stop stop-color="currentColor" stop-opacity="0.6"></stop><stop offset="0.608" stop-color="currentColor"></stop></linearGradient><clipPath id="api-gradient_inline_svg__a"><path fill="#fff" d="M0 0h16v16H0z"></path></clipPath></defs></svg>