<svg xmlns="http://www.w3.org/2000/svg" width="18" height="18" fill="none" viewBox="0 0 18 18" class="size-4 text-gray-new-20 dark:text-white dark:[&amp;_stop:not([stop-opacity])]:gradient-stop-opacity-40 dark:[&amp;_stop[stop-opacity=&quot;0.6&quot;]]:gradient-stop-opacity-100"><path fill="url(#auth-gradient_inline_svg__a)" d="M8.543 1.371c.26-.083.537-.092.8-.03l.113.03.001.001 5.25 1.68h.001l.114.042c.558.23.928.776.928 1.386V11c0 1.787-1.373 3.105-2.727 3.981-1.383.895-2.917 1.44-3.561 1.649a1.5 1.5 0 0 1-.925 0c-.645-.209-2.178-.755-3.56-1.649C3.624 14.105 2.25 12.788 2.25 11V4.48a1.5 1.5 0 0 1 1.043-1.428l5.25-1.68zm.611.954a.5.5 0 0 0-.307-.002v.001l-5.25 1.68a.5.5 0 0 0-.347.476V11c0 1.242.968 2.3 2.27 3.142 1.274.824 2.712 1.339 3.326 1.538l.078.018a.5.5 0 0 0 .23-.018l.6-.21c.723-.267 1.77-.71 2.726-1.328 1.301-.843 2.27-1.9 2.27-3.142V4.48a.5.5 0 0 0-.273-.445l-.075-.031zm2.019 4.049a.501.501 0 0 1 .73.677l-3.398 4.5a.5.5 0 0 1-.74.065l-1.609-1.5-.067-.076a.501.501 0 0 1 .669-.717l.08.06 1.203 1.122 3.063-4.056z"></path><defs><linearGradient id="auth-gradient_inline_svg__a" x1="9" x2="9" y1="1.301" y2="16.705" gradientUnits="userSpaceOnUse"><stop stop-color="currentColor" stop-opacity="0.6"></stop><stop offset="0.608" stop-color="currentColor"></stop></linearGradient></defs></svg>