<svg xmlns="http://www.w3.org/2000/svg" width="16" height="16" fill="none" viewBox="0 0 16 16" class="size-4 text-gray-new-20 dark:text-white dark:[&amp;_stop:not([stop-opacity])]:gradient-stop-opacity-40 dark:[&amp;_stop[stop-opacity=&quot;0.6&quot;]]:gradient-stop-opacity-100"><path fill="url(#gear-gradient_inline_svg__a)" d="M7.998 0a1.606 1.606 0 0 1 1.595 1.417l.105.85q.601.178 1.15.477l.678-.526a1.606 1.606 0 0 1 2.254 2.255v-.001l-.527.677c.199.366.36.752.477 1.15l.643.08.206.024a1.606 1.606 0 0 1 0 3.192v-.001l-.847.105q-.178.602-.477 1.152l.526.676h.001a1.608 1.608 0 0 1-1.168 2.591 1.6 1.6 0 0 1-1.086-.337v.001l-.677-.527q-.55.3-1.15.477l-.106.845v.001a1.608 1.608 0 0 1-2.663 1.015 1.6 1.6 0 0 1-.527-1.011v.001l-.106-.85a6 6 0 0 1-1.15-.478l-.677.527H4.47a1.605 1.605 0 0 1-2.253-2.255l.525-.675a6 6 0 0 1-.476-1.15l-.845-.106a1.607 1.607 0 0 1-.146-3.166l.146-.025.845-.105q.178-.601.477-1.15l-.526-.678a1.608 1.608 0 0 1 1.168-2.59c.39-.024.777.096 1.086.337l.674.526c.366-.199.752-.36 1.15-.478l.107-.85A1.606 1.606 0 0 1 7.998 0m0 .941a.665.665 0 0 0-.66.588l-.001.005-.145 1.163-.04.324-.319.076a5 5 0 0 0-1.478.614l-.279.172-.258-.201-.924-.721a.67.67 0 0 0-.88.054.67.67 0 0 0-.118.777l.064.102.722.927.2.258-.172.278c-.283.457-.49.956-.613 1.479l-.076.318-.324.04-1.163.146H1.53a.665.665 0 0 0-.118 1.297l.118.024.005.001 1.163.146.324.04.076.318c.123.523.33 1.022.613 1.479l.173.278-.201.259-.721.924H2.96a.666.666 0 0 0 .934.934l.926-.722.26-.2.277.172c.4.247.832.436 1.284.563l.195.05.317.075.041.325.145 1.163v.005l.025.118a.666.666 0 0 0 1.296-.118l.001-.005.146-1.163.04-.325.318-.075a5 5 0 0 0 1.479-.613l.277-.173.259.201.926.721.001.001.101.065a.664.664 0 0 0 .832-.999l-.722-.927-.2-.258.172-.278c.283-.457.49-.956.613-1.479l.075-.318.325-.04 1.164-.146h.004l.118-.025a.665.665 0 0 0 .302-1.078.66.66 0 0 0-.397-.213l-.03-.004-1.163-.146-.324-.04-.076-.318a5 5 0 0 0-.613-1.479l-.172-.278.2-.258.721-.926.001-.001.066-.102a.666.666 0 0 0-.898-.896l-.101.065-.927.72-.26.202-.277-.172a5 5 0 0 0-1.478-.614l-.318-.076-.04-.324-.146-1.163V1.53a.666.666 0 0 0-.661-.588M8 5.525a2.476 2.476 0 1 1 0 4.952 2.476 2.476 0 0 1 0-4.952m0 .942a1.534 1.534 0 1 0 0 3.069 1.534 1.534 0 0 0 0-3.07"></path><defs><linearGradient id="gear-gradient_inline_svg__a" x1="8" x2="8" y1="0" y2="16" gradientUnits="userSpaceOnUse"><stop stop-color="currentColor" stop-opacity="0.6"></stop><stop offset="0.608" stop-color="currentColor"></stop></linearGradient></defs></svg>