<svg xmlns="http://www.w3.org/2000/svg" width="16" height="16" fill="none" viewBox="0 0 16 16" class="size-4 text-gray-new-20 dark:text-white dark:[&amp;_stop:not([stop-opacity])]:gradient-stop-opacity-40 dark:[&amp;_stop[stop-opacity=&quot;0.6&quot;]]:gradient-stop-opacity-100"><path fill="url(#branching-gradient_inline_svg__a)" d="M5.813.938a.5.5 0 0 1 0 1H2.645l5.271 5.271a.5.5 0 0 1 .146.354v7a.5.5 0 0 1-1 0V7.77L1.939 2.645v3.168a.5.5 0 0 1-1 0V1.42l.006-.062.003-.022.006-.02.008-.029.01-.034.012-.027.015-.026q.005-.011.012-.022l.017-.027.013-.016.033-.04.011-.012.015-.013a.5.5 0 0 1 .188-.11l.038-.01A.5.5 0 0 1 1.42.938h4.394m8.75 0q.049 0 .097.008l.003.001a.5.5 0 0 1 .163.067q.018.011.035.025.023.016.042.034.007.005.013.011l.012.015a.5.5 0 0 1 .086.128l.012.027.017.053q.006.02.01.04.01.045.01.09v4.376a.5.5 0 0 1-1 0V2.645L9.666 7.04a.5.5 0 1 1-.707-.707l4.397-4.396h-3.168a.5.5 0 0 1 0-1z"></path><defs><linearGradient id="branching-gradient_inline_svg__a" x1="8" x2="8" y1="0.938" y2="15.063" gradientUnits="userSpaceOnUse"><stop stop-color="currentColor" stop-opacity="0.6"></stop><stop offset="0.608" stop-color="currentColor"></stop></linearGradient></defs></svg>