<svg xmlns="http://www.w3.org/2000/svg" width="16" height="16" fill="none" viewBox="0 0 16 16" class="size-4 text-gray-new-20 dark:text-white dark:[&amp;_stop:not([stop-opacity])]:gradient-stop-opacity-40 dark:[&amp;_stop[stop-opacity=&quot;0.6&quot;]]:gradient-stop-opacity-100"><path fill="url(#migration-gradient_inline_svg__a)" fill-rule="evenodd" d="M8 7.5H3.52a.5.5 0 1 0 0 1h3.273l-5.547 5.547a.5.5 0 1 0 .707.707L7.5 9.207v3.273a.5.5 0 1 0 1 0V8a.5.5 0 0 0-.5-.5m5.12 7.4a1.78 1.78 0 0 0 1.78-1.78V2.88a1.78 1.78 0 0 0-1.78-1.78H2.88A1.78 1.78 0 0 0 1.1 2.88v2.224a.5.5 0 0 0 1 0V2.88a.78.78 0 0 1 .78-.78h10.24a.78.78 0 0 1 .78.78v10.24a.78.78 0 0 1-.78.78h-2.211a.5.5 0 0 0 0 1z" clip-rule="evenodd"></path><defs><linearGradient id="migration-gradient_inline_svg__a" x1="7.971" x2="7.971" y1="16.783" y2="-1.712" gradientUnits="userSpaceOnUse"><stop offset="0.392" stop-color="currentColor"></stop><stop offset="1" stop-color="currentColor" stop-opacity="0.6"></stop></linearGradient></defs></svg>