<svg xmlns="http://www.w3.org/2000/svg" width="16" height="16" fill="none" viewBox="0 0 16 16" class="size-4 text-gray-new-20 dark:text-white dark:[&amp;_stop:not([stop-opacity])]:gradient-stop-opacity-40 dark:[&amp;_stop[stop-opacity=&quot;0.6&quot;]]:gradient-stop-opacity-100"><path fill="url(#serverless-gradient_inline_svg__a)" d="M13.507 1.147c.744 0 1.347.603 1.347 1.347v11.014c0 .744-.603 1.347-1.347 1.347H2.493a1.347 1.347 0 0 1-1.347-1.347V2.494c0-.744.603-1.347 1.347-1.347zM2.146 13.508c0 .192.156.347.347.347H6.23V9.77H2.146zm.347-11.361a.35.35 0 0 0-.347.347V8.77h4.583l.101.01a.5.5 0 0 1 .399.49v4.585h6.278a.346.346 0 0 0 .347-.347V2.494a.347.347 0 0 0-.347-.347zm9.333 1.54q.031.001.063.007l.022.003q.01.001.02.004l.025.008q.03.009.058.022l.021.01a.5.5 0 0 1 .12.083l.01.01q.005.006.011.013a.5.5 0 0 1 .059.076l.015.028a.5.5 0 0 1 .048.132l.006.03.005.055.002.019v3.388a.5.5 0 0 1-1 0V5.394L8.776 7.929a.5.5 0 0 1-.707-.707l2.535-2.535H8.422a.5.5 0 0 1 0-1h3.404"></path><defs><linearGradient id="serverless-gradient_inline_svg__a" x1="8" x2="8" y1="1.147" y2="14.855" gradientUnits="userSpaceOnUse"><stop stop-color="currentColor" stop-opacity="0.6"></stop><stop offset="0.608" stop-color="currentColor"></stop></linearGradient></defs></svg>