<svg
 xmlns="http://www.w3.org/2000/svg" fill="none" viewBox="0 0 36 36" width="18" height="18"><g clip-path="url(#discord_inline_svg__a)"><path fill="currentColor" d="M30.476 6.274A29.7 29.7 0 0 0 23.148 4a.11.11 0 0 0-.118.056 21 21 0 0 0-.912 1.874 27.4 27.4 0 0 0-8.23 0 19 19 0 0 0-.927-1.874.12.12 0 0 0-.118-.056 29.6 29.6 0 0 0-7.328 2.273.1.1 0 0 0-.048.041C.8 13.288-.478 20.09.15 26.805a.12.12 0 0 0 .047.085 29.9 29.9 0 0 0 8.989 4.544.12.12 0 0 0 .126-.042 21.3 21.3 0 0 0 1.84-2.99.114.114 0 0 0-.063-.16 19.7 19.7 0 0 1-2.808-1.338.116.116 0 0 1-.012-.191c.189-.142.378-.289.558-.437a.11.11 0 0 1 .116-.016c5.892 2.69 12.27 2.69 18.092 0a.11.11 0 0 1 .118.014c.18.149.37.297.56.439a.115.115 0 0 1-.01.191c-.897.524-1.83.967-2.81 1.337a.115.115 0 0 0-.061.16 24 24 0 0 0 1.837 2.99c.029.04.08.057.127.043 2.941-.91 5.924-2.283 9.003-4.544a.12.12 0 0 0 .047-.083c.75-7.765-1.257-14.51-5.323-20.49a.1.1 0 0 0-.046-.043M12.03 22.716c-1.774 0-3.235-1.629-3.235-3.629s1.433-3.628 3.235-3.628c1.816 0 3.264 1.643 3.235 3.628 0 2-1.433 3.629-3.235 3.629m11.962 0c-1.774 0-3.235-1.629-3.235-3.629s1.433-3.628 3.235-3.628c1.816 0 3.264 1.643 3.235 3.628 0 2-1.419 3.629-3.235 3.629"></path></g><defs><clipPath id="discord_inline_svg__a"><path fill="#fff" d="M0 0h36v36H0z"></path></clipPath></defs></svg>