<svg xmlns="http://www.w3.org/2000/svg" width="16" height="16" fill="none" viewBox="0 0 16 16" class="size-4 text-gray-new-20 dark:text-white dark:[&amp;_stop:not([stop-opacity])]:gradient-stop-opacity-40 dark:[&amp;_stop[stop-opacity=&quot;0.6&quot;]]:gradient-stop-opacity-100"><path fill="url(#cloud-gradient_inline_svg__a)" d="M8 1.15c2.549 0 4.63 1.886 4.992 4.327a4.29 4.29 0 0 1 2.873 4.046 4.31 4.31 0 0 1-4.31 4.31H3.684a3.55 3.55 0 0 1-3.548-3.548A3.54 3.54 0 0 1 2.969 6.82a5 5 0 0 1-.04-.598c0-2.8 2.27-5.072 5.071-5.072m0 1a4.07 4.07 0 0 0-4.071 4.072c0 .308.043.611.113.917a.502.502 0 0 1-.467.611 2.542 2.542 0 0 0 .108 5.083h7.873a3.31 3.31 0 0 0 3.31-3.31 3.3 3.3 0 0 0-2.459-3.183h-.002l-.214-.052a3 3 0 0 0-.635-.074c-.98 0-1.861.426-2.468 1.103l-.372-.334-.372-.333a4.3 4.3 0 0 1 3.212-1.436q.19.002.37.021A4.05 4.05 0 0 0 8 2.15m1.088 5.167a.5.5 0 1 1-.744-.667z"></path><defs><linearGradient id="cloud-gradient_inline_svg__a" x1="8" x2="8" y1="1.15" y2="13.833" gradientUnits="userSpaceOnUse"><stop stop-color="currentColor" stop-opacity="0.6"></stop><stop offset="0.608" stop-color="currentColor"></stop></linearGradient></defs></svg>