<svg xmlns="http://www.w3.org/2000/svg" width="16" height="16" fill="none" viewBox="0 0 16 16" class="size-4 text-gray-new-20 dark:text-white dark:[&amp;_stop:not([stop-opacity])]:gradient-stop-opacity-40 dark:[&amp;_stop[stop-opacity=&quot;0.6&quot;]]:gradient-stop-opacity-100"><path fill="url(#connection-gradient_inline_svg__a)" fill-rule="evenodd" d="M7.572 2.506a1.213 1.213 0 0 0 0 2.425h2.925V2.506zm-1.565-.352a2.21 2.21 0 0 1 1.565-.648h3.425a.5.5 0 0 1 .5.5v1.213h2.925a.5.5 0 0 1 0 1h-2.925V5.43a.5.5 0 0 1-.5.5H7.572a2.213 2.213 0 0 1-1.565-3.777m-3.323 2.67a2.07 2.07 0 0 1 1.463-.606.5.5 0 1 0 0-1 3.069 3.069 0 0 0 0 6.138h7.706a2.069 2.069 0 0 1 0 4.138h-6.85a.5.5 0 1 0 0 1h6.85a3.069 3.069 0 0 0 0-6.138H4.147a2.069 2.069 0 0 1-1.463-3.532" clip-rule="evenodd"></path><defs><linearGradient id="connection-gradient_inline_svg__a" x1="8.028" x2="8.028" y1="-0.266" y2="17.141" gradientUnits="userSpaceOnUse"><stop stop-color="currentColor" stop-opacity="0.6"></stop><stop offset="0.608" stop-color="currentColor"></stop></linearGradient></defs></svg>