<svg xmlns="http://www.w3.org/2000/svg" width="16" height="16" fill="none" viewBox="0 0 16 16" class="size-4 text-gray-new-20 dark:text-white dark:[&amp;_stop:not([stop-opacity])]:gradient-stop-opacity-40 dark:[&amp;_stop[stop-opacity=&quot;0.6&quot;]]:gradient-stop-opacity-100"><g clip-path="url(#ai-gradient_inline_svg__a)"><path fill="url(#ai-gradient_inline_svg__b)" fill-rule="evenodd" d="M12.441 1.438a.5.5 0 0 0-1 0 2.125 2.125 0 0 1-2.125 2.125.5.5 0 1 0 0 1 2.125 2.125 0 0 1 2.125 2.125.5.5 0 0 0 1 0 2.125 2.125 0 0 1 2.125-2.125.5.5 0 0 0 0-1 2.125 2.125 0 0 1-2.125-2.125m-.915 2.21q.237-.237.415-.515a3.1 3.1 0 0 0 .93.93 3.1 3.1 0 0 0-.93.929 3.1 3.1 0 0 0-.929-.93q.277-.178.514-.415m-5.21 2.165a.5.5 0 0 0-1 0 3.875 3.875 0 0 1-3.875 3.875.5.5 0 1 0 0 1 3.874 3.874 0 0 1 3.875 3.874.5.5 0 0 0 1 0 3.875 3.875 0 0 1 3.875-3.874.5.5 0 0 0 0-1 3.875 3.875 0 0 1-3.875-3.876M4.89 9.26c.378-.38.692-.817.927-1.297a4.87 4.87 0 0 0 2.225 2.225 4.87 4.87 0 0 0-2.225 2.224 4.88 4.88 0 0 0-2.224-2.225c.48-.235.918-.549 1.297-.927" clip-rule="evenodd"></path></g><defs><linearGradient id="ai-gradient_inline_svg__b" x1="8.033" x2="8.033" y1="-0.99" y2="17.941" gradientUnits="userSpaceOnUse"><stop stop-color="currentColor" stop-opacity="0.6"></stop><stop offset="0.608" stop-color="currentColor"></stop></linearGradient><clipPath id="ai-gradient_inline_svg__a"><path fill="#fff" d="M0 0h16v16H0z"></path></clipPath></defs></svg>