<svg xmlns="http://www.w3.org/2000/svg" width="16" height="16" fill="none" viewBox="0 0 16 16" class="size-4 text-gray-new-20 dark:text-white dark:[&amp;_stop:not([stop-opacity])]:gradient-stop-opacity-40 dark:[&amp;_stop[stop-opacity=&quot;0.6&quot;]]:gradient-stop-opacity-100"><g clip-path="url(#multi-tb-gradient_inline_svg__a)"><path fill="url(#multi-tb-gradient_inline_svg__b)" d="M8.001.498a7.5 7.5 0 1 1-7.5 7.5.5.5 0 0 1 1 0 6.5 6.5 0 1 0 1.24-3.816h1.945a.5.5 0 0 1 0 1H1.738a.5.5 0 0 1-.5-.5V1.734a.5.5 0 0 1 1 0v1.464a7.49 7.49 0 0 1 5.763-2.7M8 3.814a.5.5 0 0 1 .5.5v3.478l2.8 2.8.065.079a.5.5 0 0 1-.693.692l-.078-.063-2.948-2.947a.5.5 0 0 1-.146-.354V4.314a.5.5 0 0 1 .5-.5"></path></g><defs><linearGradient id="multi-tb-gradient_inline_svg__b" x1="8.001" x2="8.001" y1="0.498" y2="15.498" gradientUnits="userSpaceOnUse"><stop stop-color="currentColor" stop-opacity="0.6"></stop><stop offset="0.608" stop-color="currentColor"></stop></linearGradient><clipPath id="multi-tb-gradient_inline_svg__a"><path fill="#fff" d="M0 0h16v16H0z"></path></clipPath></defs></svg>