<svg xmlns="http://www.w3.org/2000/svg" width="16" height="16" fill="none" viewBox="0 0 16 16" class="size-4 text-gray-new-20 dark:text-white dark:[&amp;_stop:not([stop-opacity])]:gradient-stop-opacity-40 dark:[&amp;_stop[stop-opacity=&quot;0.6&quot;]]:gradient-stop-opacity-100"><g clip-path="url(#pattern-gradient_inline_svg__a)"><path fill="url(#pattern-gradient_inline_svg__b)" d="M6.485 9.125a.5.5 0 0 1 .4.49V15a.5.5 0 0 1-.5.5H1a.5.5 0 0 1-.5-.5V9.615l.01-.1a.5.5 0 0 1 .49-.4h5.385zm5.823-.01a3.193 3.193 0 1 1 0 6.386 3.193 3.193 0 0 1 0-6.386M1.5 14.5h4.385v-4.385H1.5zm10.808-4.385a2.193 2.193 0 1 0 0 4.386 2.193 2.193 0 0 0 0-4.386M3.692.5a3.193 3.193 0 1 1 0 6.385 3.193 3.193 0 0 1 0-6.385m11.409.01A.5.5 0 0 1 15.5 1v5.385a.5.5 0 0 1-.5.5H9.615a.5.5 0 0 1-.5-.5V1l.01-.1a.5.5 0 0 1 .49-.4H15zM3.692 1.5a2.192 2.192 0 1 0 0 4.385 2.192 2.192 0 0 0 0-4.385m6.423 4.385H14.5V1.5h-4.385z"></path></g><defs><linearGradient id="pattern-gradient_inline_svg__b" x1="8" x2="8" y1="0.5" y2="15.5" gradientUnits="userSpaceOnUse"><stop stop-color="currentColor" stop-opacity="0.6"></stop><stop offset="0.608" stop-color="currentColor"></stop></linearGradient><clipPath id="pattern-gradient_inline_svg__a"><path fill="#fff" d="M0 0h16v16H0z"></path></clipPath></defs></svg>